<?xml version="1.0" standalone="no"?>
<!DOCTYPE svg PUBLIC "-//W3C//DTD SVG 20010904//EN"
 "http://www.w3.org/TR/2001/REC-SVG-20010904/DTD/svg10.dtd">
<svg version="1.0" xmlns="http://www.w3.org/2000/svg"
 width="881.000000pt" height="881.000000pt" viewBox="0 0 881.000000 881.000000"
 preserveAspectRatio="xMidYMid meet">
<metadata>
Created by potrace 1.11, written by Peter Selinger 2001-2013
</metadata>
<g transform="translate(0.000000,881.000000) scale(0.100000,-0.100000)"
fill="#000000" stroke="none">
<path d="M6620 8582 c0 -4 -5 -36 -10 -72 -5 -36 -12 -87 -15 -115 -3 -27 -8
-61 -10 -75 -2 -14 -7 -47 -10 -75 -11 -100 -14 -117 -19 -123 -3 -3 -38 25
-77 63 l-71 68 -22 -39 c-58 -103 -64 -267 -13 -359 6 -11 11 -23 12 -27 0 -4
17 -27 38 -52 20 -25 34 -47 30 -49 -5 -2 -39 -5 -78 -7 -38 -1 -86 -3 -105
-5 -19 -1 -152 -42 -295 -89 -143 -48 -388 -128 -545 -180 l-285 -93 -315 1
c-335 2 -319 -1 -405 55 -22 14 -42 26 -45 26 -3 0 -16 8 -30 17 -65 41 -65
41 -209 -78 -9 -7 -52 -41 -95 -75 l-79 -62 7 59 c9 88 19 197 19 214 0 22
-15 182 -19 203 -3 17 -14 135 -17 192 -2 33 -14 28 223 104 l95 30 -80 -4
c-44 -2 -114 -7 -155 -10 l-76 -7 -113 227 c-111 221 -114 226 -140 220 -14
-4 -33 -8 -41 -10 -8 -2 -62 -17 -120 -35 -58 -17 -112 -33 -121 -35 -8 -2
-52 -14 -97 -28 -45 -14 -82 -24 -82 -23 0 2 -37 -9 -82 -23 l-82 -27 -3 -165
c-1 -90 -3 -196 -3 -235 l-1 -71 -52 -22 c-29 -13 -74 -34 -102 -46 -27 -13
-71 -33 -97 -44 -27 -11 -48 -22 -48 -24 0 -3 35 -3 78 -2 164 7 272 9 275 4
2 -2 14 -47 26 -99 37 -163 112 -324 211 -455 l48 -63 -61 6 c-154 16 -309 3
-489 -42 -38 -10 -56 -27 -71 -68 -14 -38 -181 -530 -224 -660 -17 -51 -21
-53 -98 -63 -27 -3 -57 -8 -65 -10 -8 -2 -33 -6 -55 -10 -22 -3 -69 -11 -105
-17 -76 -14 -165 -15 -270 -3 -41 4 -93 9 -115 11 -22 1 -60 5 -85 8 -25 3
-72 8 -105 11 -33 2 -80 6 -105 9 -74 8 -162 17 -210 21 -136 12 -155 16 -184
43 -16 15 -74 70 -128 122 -202 192 -223 212 -245 220 -45 19 -105 -26 -107
-80 -1 -16 -3 -30 -6 -30 -10 1 -96 86 -113 112 -20 31 -77 51 -112 38 -12 -5
-32 -21 -44 -36 -36 -46 -14 -110 63 -187 85 -84 242 -211 295 -239 93 -48
212 -182 266 -299 24 -54 55 -156 58 -194 2 -17 9 -20 57 -19 67 1 346 13 455
20 44 3 121 7 170 9 50 2 144 7 210 10 66 3 167 8 225 10 124 5 338 15 396 19
23 1 86 21 140 45 55 24 115 50 134 59 19 8 56 25 82 37 l48 23 22 -28 c13
-15 30 -37 37 -48 37 -53 231 -332 262 -377 217 -308 269 -386 264 -395 -3 -4
-7 -34 -10 -66 -3 -33 -7 -75 -10 -94 -3 -19 -7 -62 -11 -95 -3 -33 -7 -71 -9
-85 -2 -14 -7 -50 -10 -80 -4 -30 -8 -71 -11 -90 -2 -19 -7 -62 -10 -95 -3
-33 -7 -73 -9 -90 -2 -16 -6 -57 -9 -90 -4 -33 -9 -73 -11 -90 -2 -16 -7 -57
-10 -90 -3 -33 -8 -76 -11 -95 -3 -19 -7 -55 -9 -80 -9 -97 -17 -166 -20 -190
-2 -14 -6 -49 -9 -77 -18 -167 -10 -146 -135 -338 -64 -99 -126 -196 -137
-215 -10 -19 -22 -37 -25 -40 -3 -3 -34 -55 -68 -117 -121 -221 -184 -382
-207 -533 -10 -64 -6 -194 7 -227 6 -15 10 -30 10 -33 -1 -30 56 -143 100
-194 37 -45 101 -104 134 -127 16 -12 46 -42 65 -67 44 -57 159 -175 225 -229
139 -114 365 -239 505 -279 8 -2 53 -14 100 -27 47 -12 88 -26 92 -32 4 -5 19
-48 33 -95 15 -47 35 -114 46 -149 l20 -64 -30 -49 c-17 -27 -31 -51 -31 -54
0 -3 -5 -10 -10 -17 -6 -7 -65 -101 -131 -209 l-119 -197 21 -38 c66 -119 212
-206 364 -216 234 -15 451 174 468 408 8 114 -37 240 -118 329 l-45 50 72 38
c40 21 76 38 81 38 7 0 2 161 -8 209 -3 17 4 21 53 31 31 7 77 18 102 27 25 8
52 16 60 18 24 5 146 57 200 85 265 136 476 332 655 605 61 95 136 230 238
432 52 104 107 211 122 238 15 28 40 75 57 105 35 65 36 68 114 190 129 203
289 379 480 533 l72 57 78 -7 c110 -9 128 -8 223 16 103 26 102 26 129 1 50
-47 129 -56 199 -24 65 30 101 81 158 217 59 143 91 192 232 355 93 107 166
217 187 280 54 161 -7 327 -146 396 -27 14 -57 23 -67 21 -10 -2 -34 -6 -53
-9 -20 -3 -47 -10 -61 -15 -14 -5 -28 -7 -31 -4 -3 3 -13 -11 -21 -33 -22 -55
-75 -184 -90 -219 -7 -16 -35 -84 -61 -150 -26 -66 -48 -122 -50 -123 -3 -4
-93 47 -111 63 -6 5 -66 44 -132 85 -67 41 -139 86 -161 100 -22 14 -167 106
-323 205 -262 167 -330 206 -462 265 -54 24 -139 63 -253 116 -40 19 -76 34
-81 34 -5 0 -11 3 -13 8 -1 4 -32 32 -68 62 -36 30 -67 57 -70 61 -3 4 -48 21
-100 39 -188 64 -344 159 -482 294 -122 120 -137 146 -162 286 -9 52 -25 128
-50 240 -14 63 -27 126 -30 140 -7 39 -56 273 -61 290 -3 8 19 45 48 81 28 36
63 81 77 99 14 18 30 38 35 44 6 6 23 27 38 47 15 20 42 43 60 50 18 6 50 20
72 29 22 10 81 34 130 54 50 20 99 41 110 46 11 4 29 10 40 13 21 5 283 83
400 119 39 12 75 23 80 24 15 4 168 49 263 77 45 14 84 25 85 25 1 1 9 3 17 5
8 3 57 18 108 33 l93 28 -1 65 c-1 36 -1 90 -1 119 l1 53 59 26 59 25 57 172
c31 94 59 178 61 186 2 8 12 40 22 70 18 53 18 56 0 125 -10 38 -20 77 -22 85
-10 38 -56 208 -65 238 -5 18 -10 34 -11 37 -5 25 -20 40 -59 58 -77 35 -81
37 -81 29z"/>
</g>
</svg>
