<?xml version="1.0" encoding="UTF-8" standalone="no"?>
<!--?xml version="1.0" standalone="no"?-->

<svg
   xmlns:dc="http://purl.org/dc/elements/1.1/"
   xmlns:cc="http://creativecommons.org/ns#"
   xmlns:rdf="http://www.w3.org/1999/02/22-rdf-syntax-ns#"
   xmlns:svg="http://www.w3.org/2000/svg"
   xmlns="http://www.w3.org/2000/svg"
   xmlns:sodipodi="http://sodipodi.sourceforge.net/DTD/sodipodi-0.dtd"
   xmlns:inkscape="http://www.inkscape.org/namespaces/inkscape"
   version="1.0"
   width="300.000000pt"
   height="156.000000pt"
   viewBox="0 0 300.000000 156.000000"
   preserveAspectRatio="xMidYMid meet"
   id="svg2"
   inkscape:version="0.91 r13725"
   sodipodi:docname="clouds.svg">
  <metadata
     id="metadata14">
    <rdf:RDF>
      <cc:Work
         rdf:about="">
        <dc:format>image/svg+xml</dc:format>
        <dc:type
           rdf:resource="http://purl.org/dc/dcmitype/StillImage" />
      </cc:Work>
    </rdf:RDF>
  </metadata>
  <defs
     id="defs12" />
  <sodipodi:namedview
     pagecolor="#ffffff"
     bordercolor="#666666"
     borderopacity="1"
     objecttolerance="10"
     gridtolerance="10"
     guidetolerance="10"
     inkscape:pageopacity="0"
     inkscape:pageshadow="2"
     inkscape:window-width="1901"
     inkscape:window-height="1202"
     id="namedview10"
     showgrid="false"
     inkscape:zoom="2.0666374"
     inkscape:cx="107.66239"
     inkscape:cy="11.087052"
     inkscape:window-x="0"
     inkscape:window-y="92"
     inkscape:window-maximized="0"
     inkscape:current-layer="svg2" />
  <g
     transform="matrix(0.02633763,0,0,-0.03138081,12.901526,67.510251)"
     id="g4"
     style="fill:#ffffff;fill-opacity:0.61428571;stroke:none;stroke-width:0.80000001;stroke-miterlimit:4;stroke-dasharray:none;stroke-opacity:1">
    <path
       class="node"
       id="node1"
       d="m 1405,1546 c -126,-40 -219,-152 -232,-282 -5,-50 -8,-54 -32,-54 -51,0 -104,-22 -147,-62 -24,-22 -46,-48 -49,-59 -6,-18 -7,-18 -43,0 -98,48 -229,53 -334,12 C 471,1063 375,961 349,867 340,834 338,833 278,827 110,812 -18,674 19,548 48,453 158,380 288,372 c 69,-4 81,-8 116,-38 37,-32 89,-54 129,-54 9,0 17,-4 17,-10 0,-18 64,-81 104,-103 54,-28 164,-30 222,-4 l 41,19 47,-46 c 85,-82 233,-134 347,-122 69,7 151,36 210,75 l 44,29 70,-24 c 133,-45 304,-27 415,44 25,16 68,52 97,81 l 52,52 48,-21 c 69,-30 147,-36 218,-16 67,20 96,37 147,84 34,32 39,34 69,23 112,-39 241,19 289,130 46,109 -4,226 -120,278 -25,11 -62,21 -82,21 -33,0 -38,3 -38,23 0,12 -13,50 -30,85 -94,200 -378,305 -617,228 -16,-5 -23,-3 -23,6 0,26 -62,99 -101,119 -21,10 -59,22 -83,25 -43,6 -43,7 -59,64 -48,173 -242,279 -412,226 z m 195,-22 c 42,-12 67,-29 115,-77 69,-70 95,-131 95,-223 0,-30 5,-54 10,-54 6,0 10,16 10,35 0,34 1,35 39,35 51,0 129,-52 156,-103 l 20,-39 -25,-16 c -34,-23 -90,-82 -90,-96 0,-5 22,11 49,38 60,59 143,86 266,86 225,0 407,-117 461,-296 12,-41 12,-45 -4,-50 -44,-15 -69,-26 -92,-44 -40,-31 -15,-34 30,-4 95,63 240,34 294,-58 50,-85 44,-166 -17,-235 -55,-63 -158,-91 -231,-63 -23,8 -25,12 -16,35 12,32 13,45 1,45 -5,0 -12,-12 -15,-26 -11,-41 -91,-119 -149,-145 -71,-31 -194,-33 -252,-4 -40,20 -44,30 -31,73 13,39 -9,24 -29,-20 -23,-53 -104,-135 -167,-170 -88,-49 -140,-61 -251,-56 -89,3 -110,8 -167,35 -36,17 -75,41 -88,53 -13,12 -26,19 -30,15 -4,-4 8,-20 27,-35 l 33,-28 -40,-27 C 1342,-7 1122,12 972,153 l -52,50 -42,-19 c -55,-24 -170,-25 -214,-2 -37,20 -94,77 -94,95 0,7 6,13 14,13 8,0 18,5 21,10 5,8 -9,9 -43,4 -69,-9 -114,8 -162,63 -22,25 -40,41 -40,34 0,-19 -114,-13 -174,9 -150,56 -199,197 -106,303 63,71 115,91 237,92 55,0 96,3 90,7 -7,4 -20,8 -29,8 -26,0 -22,28 13,98 35,71 90,123 169,161 49,23 67,26 160,26 118,0 177,-19 238,-77 22,-22 32,-27 32,-17 0,9 -9,24 -20,34 -19,17 -19,19 -2,47 35,60 136,110 193,95 39,-11 91,-46 96,-68 6,-21 23,-26 23,-6 0,18 -48,67 -76,77 -22,9 -24,14 -18,52 29,218 212,342 414,282 z"
       inkscape:connector-curvature="0"
       style="fill:#ffffff;fill-opacity:0.61428571;stroke:none;stroke-width:0.80000001;stroke-miterlimit:4;stroke-dasharray:none;stroke-opacity:1" />
  </g>
  <g
     style="fill:#ffffff;fill-opacity:0.61428571;stroke:none;stroke-width:0.80000001;stroke-miterlimit:4;stroke-dasharray:none;stroke-opacity:1"
     id="g3336"
     transform="matrix(0.02087152,0,0,-0.02287541,204.19884,129.34214)">
    <path
       style="fill:#ffffff;fill-opacity:0.61428571;stroke:none;stroke-width:0.80000001;stroke-miterlimit:4;stroke-dasharray:none;stroke-opacity:1"
       inkscape:connector-curvature="0"
       d="m 1405,1546 c -126,-40 -219,-152 -232,-282 -5,-50 -8,-54 -32,-54 -51,0 -104,-22 -147,-62 -24,-22 -46,-48 -49,-59 -6,-18 -7,-18 -43,0 -98,48 -229,53 -334,12 C 471,1063 375,961 349,867 340,834 338,833 278,827 110,812 -18,674 19,548 48,453 158,380 288,372 c 69,-4 81,-8 116,-38 37,-32 89,-54 129,-54 9,0 17,-4 17,-10 0,-18 64,-81 104,-103 54,-28 164,-30 222,-4 l 41,19 47,-46 c 85,-82 233,-134 347,-122 69,7 151,36 210,75 l 44,29 70,-24 c 133,-45 304,-27 415,44 25,16 68,52 97,81 l 52,52 48,-21 c 69,-30 147,-36 218,-16 67,20 96,37 147,84 34,32 39,34 69,23 112,-39 241,19 289,130 46,109 -4,226 -120,278 -25,11 -62,21 -82,21 -33,0 -38,3 -38,23 0,12 -13,50 -30,85 -94,200 -378,305 -617,228 -16,-5 -23,-3 -23,6 0,26 -62,99 -101,119 -21,10 -59,22 -83,25 -43,6 -43,7 -59,64 -48,173 -242,279 -412,226 z m 195,-22 c 42,-12 67,-29 115,-77 69,-70 95,-131 95,-223 0,-30 5,-54 10,-54 6,0 10,16 10,35 0,34 1,35 39,35 51,0 129,-52 156,-103 l 20,-39 -25,-16 c -34,-23 -90,-82 -90,-96 0,-5 22,11 49,38 60,59 143,86 266,86 225,0 407,-117 461,-296 12,-41 12,-45 -4,-50 -44,-15 -69,-26 -92,-44 -40,-31 -15,-34 30,-4 95,63 240,34 294,-58 50,-85 44,-166 -17,-235 -55,-63 -158,-91 -231,-63 -23,8 -25,12 -16,35 12,32 13,45 1,45 -5,0 -12,-12 -15,-26 -11,-41 -91,-119 -149,-145 -71,-31 -194,-33 -252,-4 -40,20 -44,30 -31,73 13,39 -9,24 -29,-20 -23,-53 -104,-135 -167,-170 -88,-49 -140,-61 -251,-56 -89,3 -110,8 -167,35 -36,17 -75,41 -88,53 -13,12 -26,19 -30,15 -4,-4 8,-20 27,-35 l 33,-28 -40,-27 C 1342,-7 1122,12 972,153 l -52,50 -42,-19 c -55,-24 -170,-25 -214,-2 -37,20 -94,77 -94,95 0,7 6,13 14,13 8,0 18,5 21,10 5,8 -9,9 -43,4 -69,-9 -114,8 -162,63 -22,25 -40,41 -40,34 0,-19 -114,-13 -174,9 -150,56 -199,197 -106,303 63,71 115,91 237,92 55,0 96,3 90,7 -7,4 -20,8 -29,8 -26,0 -22,28 13,98 35,71 90,123 169,161 49,23 67,26 160,26 118,0 177,-19 238,-77 22,-22 32,-27 32,-17 0,9 -9,24 -20,34 -19,17 -19,19 -2,47 35,60 136,110 193,95 39,-11 91,-46 96,-68 6,-21 23,-26 23,-6 0,18 -48,67 -76,77 -22,9 -24,14 -18,52 29,218 212,342 414,282 z"
       id="path3338"
       class="node" />
  </g>
  <g
     transform="matrix(-0.01800832,0,0,-0.02062398,189.34766,34.474432)"
     id="g3340"
     style="fill:#ffffff;fill-opacity:0.61428571;stroke:none;stroke-width:0.80000001;stroke-miterlimit:4;stroke-dasharray:none;stroke-opacity:1">
    <path
       class="node"
       id="path3342"
       d="m 1405,1546 c -126,-40 -219,-152 -232,-282 -5,-50 -8,-54 -32,-54 -51,0 -104,-22 -147,-62 -24,-22 -46,-48 -49,-59 -6,-18 -7,-18 -43,0 -98,48 -229,53 -334,12 C 471,1063 375,961 349,867 340,834 338,833 278,827 110,812 -18,674 19,548 48,453 158,380 288,372 c 69,-4 81,-8 116,-38 37,-32 89,-54 129,-54 9,0 17,-4 17,-10 0,-18 64,-81 104,-103 54,-28 164,-30 222,-4 l 41,19 47,-46 c 85,-82 233,-134 347,-122 69,7 151,36 210,75 l 44,29 70,-24 c 133,-45 304,-27 415,44 25,16 68,52 97,81 l 52,52 48,-21 c 69,-30 147,-36 218,-16 67,20 96,37 147,84 34,32 39,34 69,23 112,-39 241,19 289,130 46,109 -4,226 -120,278 -25,11 -62,21 -82,21 -33,0 -38,3 -38,23 0,12 -13,50 -30,85 -94,200 -378,305 -617,228 -16,-5 -23,-3 -23,6 0,26 -62,99 -101,119 -21,10 -59,22 -83,25 -43,6 -43,7 -59,64 -48,173 -242,279 -412,226 z m 195,-22 c 42,-12 67,-29 115,-77 69,-70 95,-131 95,-223 0,-30 5,-54 10,-54 6,0 10,16 10,35 0,34 1,35 39,35 51,0 129,-52 156,-103 l 20,-39 -25,-16 c -34,-23 -90,-82 -90,-96 0,-5 22,11 49,38 60,59 143,86 266,86 225,0 407,-117 461,-296 12,-41 12,-45 -4,-50 -44,-15 -69,-26 -92,-44 -40,-31 -15,-34 30,-4 95,63 240,34 294,-58 50,-85 44,-166 -17,-235 -55,-63 -158,-91 -231,-63 -23,8 -25,12 -16,35 12,32 13,45 1,45 -5,0 -12,-12 -15,-26 -11,-41 -91,-119 -149,-145 -71,-31 -194,-33 -252,-4 -40,20 -44,30 -31,73 13,39 -9,24 -29,-20 -23,-53 -104,-135 -167,-170 -88,-49 -140,-61 -251,-56 -89,3 -110,8 -167,35 -36,17 -75,41 -88,53 -13,12 -26,19 -30,15 -4,-4 8,-20 27,-35 l 33,-28 -40,-27 C 1342,-7 1122,12 972,153 l -52,50 -42,-19 c -55,-24 -170,-25 -214,-2 -37,20 -94,77 -94,95 0,7 6,13 14,13 8,0 18,5 21,10 5,8 -9,9 -43,4 -69,-9 -114,8 -162,63 -22,25 -40,41 -40,34 0,-19 -114,-13 -174,9 -150,56 -199,197 -106,303 63,71 115,91 237,92 55,0 96,3 90,7 -7,4 -20,8 -29,8 -26,0 -22,28 13,98 35,71 90,123 169,161 49,23 67,26 160,26 118,0 177,-19 238,-77 22,-22 32,-27 32,-17 0,9 -9,24 -20,34 -19,17 -19,19 -2,47 35,60 136,110 193,95 39,-11 91,-46 96,-68 6,-21 23,-26 23,-6 0,18 -48,67 -76,77 -22,9 -24,14 -18,52 29,218 212,342 414,282 z"
       inkscape:connector-curvature="0"
       style="fill:#ffffff;fill-opacity:0.61428571;stroke:none;stroke-width:0.80000001;stroke-miterlimit:4;stroke-dasharray:none;stroke-opacity:1" />
  </g>
</svg>
